<?xml version="1.0" standalone="no"?><!DOCTYPE svg PUBLIC "-//W3C//DTD SVG 1.1//EN" "http://www.w3.org/Graphics/SVG/1.1/DTD/svg11.dtd"><svg t="1588908833951" class="icon" viewBox="0 0 1024 1024" version="1.1" xmlns="http://www.w3.org/2000/svg" p-id="11967" width="130" height="130" xmlns:xlink="http://www.w3.org/1999/xlink"><defs><style type="text/css"></style></defs><path d="M672.974 441.129a50.39 50.39 0 0 1-50.39-50.39 119.497 119.497 0 0 0-238.994 0 50.39 50.39 0 1 1-100.637 0 220.205 220.205 0 1 1 440.339 0 50.39 50.39 0 0 1-50.39 50.39z" p-id="11968" fill="#409EFF"></path><path d="M827.096 441.129a50.39 50.39 0 0 1-50.39-50.39 273.619 273.619 0 0 0-547.238 0 50.39 50.39 0 0 1-100.637 0 374.327 374.327 0 1 1 748.583 0 50.39 50.39 0 0 1-50.39 50.39z" p-id="11969" fill="#409EFF"></path><path d="M945.009 614.111H555.06V441.13a50.39 50.39 0 0 0-100.637 0v172.982H64.332a62.916 62.916 0 0 0-62.916 62.916v281.466c0 34.769 28.146 62.987 62.916 62.987h880.677a62.916 62.916 0 0 0 62.916-62.915V677.027a62.916 62.916 0 0 0-62.916-62.916zM156.618 868.078a50.39 50.39 0 1 1 0-100.636 50.39 50.39 0 0 1 0 100.636z m152.466 0a50.39 50.39 0 1 1 0-100.636 50.39 50.39 0 0 1 0 100.636z" p-id="11970" fill="#409EFF"></path></svg>