<?xml version="1.0" standalone="no"?><!DOCTYPE svg PUBLIC "-//W3C//DTD SVG 1.1//EN" "http://www.w3.org/Graphics/SVG/1.1/DTD/svg11.dtd"><svg t="1588846183673" class="icon" viewBox="0 0 1024 1024" version="1.1" xmlns="http://www.w3.org/2000/svg" p-id="2178" width="82" height="82" xmlns:xlink="http://www.w3.org/1999/xlink"><defs><style type="text/css"></style></defs><path d="M651.64 448.53c-22.93 0-41.52-18.59-41.52-41.52 0-54.46-44.15-98.6-98.6-98.6-54.46 0-98.6 44.15-98.6 98.6 0 14.83-7.91 28.53-20.76 35.95a41.505 41.505 0 0 1-41.52 0 41.53 41.53 0 0 1-20.76-35.95c0-100.32 81.33-181.64 181.64-181.64 100.32 0 181.64 81.32 181.64 181.64 0 22.93-18.59 41.52-41.52 41.52z m0 0" p-id="2179" fill="#409EFF"></path><path d="M778.79 448.53c-22.93 0-41.52-18.59-41.52-41.52 0-124.68-101.07-225.75-225.75-225.75S285.77 282.33 285.77 407.01c-0.1 22.85-18.66 41.33-41.52 41.33-22.86 0-41.41-18.47-41.52-41.33 0-170.54 138.25-308.79 308.78-308.79 170.54 0 308.79 138.25 308.79 308.79 0.01 22.93-18.58 41.52-41.51 41.52z m0 0" p-id="2180" fill="#409EFF"></path><path d="M876.09 591.25H554.33V448.53c0-22.93-18.59-41.52-41.52-41.52-22.93 0-41.52 18.59-41.52 41.52v142.72H149.54c-28.66 0-51.9 23.24-51.9 51.9v232.24c0 28.66 23.24 51.9 51.9 51.9H876.1c28.66 0 51.9-23.24 51.9-51.9V643.14c0-13.76-5.47-26.96-15.2-36.69a51.94 51.94 0 0 0-36.71-15.2zM225.65 800.78c-16.8 0-31.93-10.12-38.36-25.63-6.42-15.52-2.87-33.37 9-45.24 11.87-11.87 29.73-15.43 45.24-9a41.509 41.509 0 0 1 25.63 38.36c0 22.93-18.59 41.51-41.51 41.51z m125.82 0a41.519 41.519 0 0 1-38.36-25.63 41.49 41.49 0 0 1 9-45.24c11.87-11.87 29.73-15.43 45.24-9a41.509 41.509 0 0 1 25.63 38.36c0 22.93-18.58 41.51-41.51 41.51z m0 0" p-id="2181" fill="#409EFF"></path></svg>