<?xml version="1.0" standalone="no"?><!DOCTYPE svg PUBLIC "-//W3C//DTD SVG 1.1//EN" "http://www.w3.org/Graphics/SVG/1.1/DTD/svg11.dtd"><svg t="1589081641203" class="icon" viewBox="0 0 1024 1024" version="1.1" xmlns="http://www.w3.org/2000/svg" p-id="2007" xmlns:xlink="http://www.w3.org/1999/xlink" width="130" height="130"><defs><style type="text/css"></style></defs><path d="M880.043349 136.533333l-49.664 49.9712c164.864 184.183467 164.317867 464.2816 0 650.001067l51.2 50.961067c190.429867-198.314667 189.917867-553.642667-1.536-750.933334z m-116.189866 116.565334l-51.712 51.473066c100.352 119.125333 100.352 294.229333 0.512 414.344534l51.2 50.961066c127.965867-148.3776 127.965867-369.390933 0-516.778666zM193.553749 186.504533L143.923883 136.533333c-191.453867 197.290667-191.965867 552.618667-1.024 750.933334l51.2-50.961067C29.235883 650.786133 29.235883 370.688 193.553749 186.504533z m66.56 66.594134c-128 147.387733-128 368.401067 0 516.778666l51.2-50.961066c-99.84-120.1152-99.84-295.253333 0.477867-414.344534L260.113749 253.098667z m251.323734 94.378666c-91.136 0-165.341867 74.171733-165.341867 165.034667a164.864 164.864 0 0 0 165.341867 165.000533c91.136 0 165.341867-74.171733 165.341866-165.000533a165.205333 165.205333 0 0 0-165.341866-165.034667z" fill="#409EFF" p-id="2008"></path></svg>